<svg xmlns="http://www.w3.org/2000/svg" width="345.3" height="103.5" viewBox="0 0 345.3 103.5"><path fill="#D34848" d="M52.2 99.1c2.4-3.2 4.6-6.3 6.6-9.5 1.6-.4 3.3-.8 4.9-1.2 1.4-4.6 2.6-9.1 3.5-13.6-7.1-.2-14.2-.5-21.3-.8-3.6 4.1-7.7 8.1-12.3 12.2 1.5.8 3.1 1.5 4.6 2.3-2.4 3.1-5 6.1-7.8 9.2-10.1-.8-20.2-1.6-30.4-2.5a161 161 0 0 0 9.4-8.7c4-.7 7.9-1.5 11.7-2.3C53.7 58.2 61.5 30.6 55.9 2c1.7-.1 3.3-.2 5-.3C83.7 29.4 87 58.3 82 88.2c1.8.9 3.7 1.8 5.6 2.8-1.5 3.3-3.2 6.5-4.9 9.8-10.2-.5-20.3-1.1-30.5-1.7zm16.7-53c.5-5 .5-9.9 0-14.9h-1.4c-1.8 10.3-5.7 20.5-12.2 30.6 4.6.1 9.2.2 13.9.3.4-5.4.3-10.7-.3-16zm49.2 56.2c-10.4-.3-20.8-.8-31.2-1.3 1.7-3.3 3.3-6.6 4.7-9.8 2.3-.6 4.5-1.2 6.7-1.8 9.9-25.3 12.5-50.5 7.8-75.6-1.9-.6-3.7-1.1-5.6-1.7-.7-3.4-1.5-6.7-2.5-9.9 9.1-.4 18.2-.8 27.4-1.1.6 3.4 1.2 6.7 1.6 10.1-1.8.7-3.5 1.4-5.3 2.1 3.4 24.3 1.7 48.8-5.1 73.4 5.3.1 10.6.3 15.8.4 3.3-6.5 6.2-13 8.7-19.6 2.2 0 4.4 0 6.6.1-.7 9-1.8 18-3.1 27.1-8.4 2.5-17.2 5.1-26.5 7.6zm61.2 1.2c-10.4-.1-20.8-.2-31.2-.4.5-3.4.9-6.8 1.4-10.2 2-.7 4.1-1.4 6.1-2 2.3-26.3 2.9-52.4 2-78.3-1.8-.6-3.5-1.3-5.3-1.9-.2-3.4-.4-6.8-.7-10.2 9.1-.2 18.2-.3 27.4-.4l-.3 10.3c-1.9.7-3.7 1.3-5.6 2-.1 24.9-.2 50-.2 75.3 5.3 0 10.5.1 15.8.1 1.5-6.7 3-13.3 4.4-20h6.6c.8 9.1 1.9 18.2 3.3 27.3-7.6 2.8-15.4 5.6-23.7 8.4zm56.9-.4c-1.3-3.4-2.5-6.8-3.5-10.2 1.9-.7 3.7-1.5 5.5-2.2-8.8-26.2-10.9-52.2-6.5-78-1.7-.7-3.5-1.4-5.2-2.1.6-3.4 1.2-6.7 2-10.1 9.1.2 18.2.4 27.3.7-1.1 3.3-2.1 6.6-2.9 10l-5.7 1.8c-5.5 25.6-2.8 51.4 8.3 77.3 2.2.7 4.5 1.3 6.8 2 1.6 3.4 3.4 6.7 5.3 10.1-10.6.2-21 .5-31.4.7zm78.9-87.6c-12.7 28.5-2.6 57 30.2 85.6-3.9.3-7.7.5-11.6.8C309 87 293 71.5 282.6 55.8c-4.9-11-7.1-22.1-7.2-33.3H274c-4.5 22.1.1 44.4 13.8 66.7 2.4.6 4.8 1.2 7.3 1.8 2.2 3.3 4.7 6.6 7.3 10-8.8.4-17.7.8-26.5 1.1-2.1-3.4-4.1-6.8-5.8-10.2 1.7-.8 3.4-1.5 5.1-2.3-13.7-25.5-17.1-50.9-10.3-76.1-1.4-1-2.9-2.1-4.3-3.1.9-3 1.9-6 3-9 7.6.3 15.2.6 22.8 1-.3 9.3.5 18.6 3.1 27.7 1.2 12.9 5.9 25.7 15 38.4h1.4c-8.6-17.8-9.3-35.6-2.2-53.4l-4.5-2.1c1.3-3.2 2.9-6.4 4.7-9.7 7.7.4 15.4.9 23.2 1.5-2.1 3.1-4 6.2-5.6 9.4-2.1.3-4.2.8-6.4 1.3z"/></svg>