<svg xmlns="http://www.w3.org/2000/svg" width="331.8" height="95.5" viewBox="0 0 331.8 95.5"><path d="M49.6 93.1v-9l4-1.3-3.8-12.7H26.9l-4.2 12.2 6.2 1.9v9H0v-9l9.1-2.9L38.2 0h5.4l28.1 81.9 6.8 2.3v9H49.6zm-7-50.4V28.4H41L31.1 58h15.7l-4.2-15.3zm69.6 50.4H82.5v-9l5.9-1.9v-69l-5.9-1.7V2.4h29.7v9.1l-6.3 1.7v66.1h16.3l6.3-17.4h7.4v23.9l-23.7 7.3zm58.1 0h-29.6v-9l5.9-1.9v-69l-5.9-1.7V2.4h29.7v9.1l-6.3 1.7v66.1h16.3l6.3-17.4h7.4v23.9l-23.8 7.3zm54 0v-9l6.3-1.9v-69l-6.3-1.7v-9H254v9l-5.9 1.7v69l5.9 1.9v9h-29.7zm101-79.8v82.3h-10.9L291 51.7l-8.2-30.6h-1.6v61l6 1.9v9.1H262V84l6.3-1.9V13.3l-5.8-2.7V2.4h24.8l13.3 25.3 10.2 36h1.6V13.3l-5.9-1.7V2.4h25.2v9.1l-6.4 1.8z" fill="#D34848"/></svg>