<?xml version="1.0" encoding="utf-8"?>
<!-- Generator: Adobe Illustrator 17.1.0, SVG Export Plug-In . SVG Version: 6.00 Build 0)  -->
<!DOCTYPE svg PUBLIC "-//W3C//DTD SVG 1.1//EN" "http://www.w3.org/Graphics/SVG/1.1/DTD/svg11.dtd">
<svg version="1.1" id="Capa_1" xmlns="http://www.w3.org/2000/svg" xmlns:xlink="http://www.w3.org/1999/xlink" x="0px" y="0px"
	 width="512px" height="512px" viewBox="0 0 512 512" enable-background="new 0 0 512 512" xml:space="preserve">
<g>
	<g>
		<path fill="#FFFFFF" d="M497.3,277.5c25.9-25.8,17.9-78-27-78l-118.2,0.1c4.5-25,11-66.5,10.7-70.4c-2.5-37.1-26.1-82.3-27.2-84.1
			c-4.3-8-26.1-18.9-48-14.3c-28.3,6.1-31.2,24.1-31.1,29.1c0,0,1.2,49.5,1.3,62.6c-13.5,29.8-60.3,108-74.4,114
			c-3.4-2-7.2-3.2-11.2-3.2H22.9C10.2,233.3,0,243.6,0,256.2l0,206.4c0.9,11.1,10.3,19.9,21.5,19.9h134.1c11.9,0,21.6-9.7,21.6-21.6
			V454c0,0,5-0.4,7.2,1.1c8.6,5.5,19.3,12.4,33.2,12.4h200.2c74.8,0,66.8-66.4,60-75.5c12.6-13.8,20.5-38,9.8-57.2
			C495.8,326.1,510.2,302.2,497.3,277.5z M151.1,460.8H21.5v-206h129.6V460.8z M462.4,275.7l-1.2,5.1c34.5,9.8,16.1,49.6-8.6,52.1
			l-1.2,5.1c33.1,8.4,17.3,49.3-8.6,52.1l-1.2,5.1c27,4.4,20.5,50.5-20.4,50.5l-203.6,0.1c-14.4,0-27.5-16.4-38-16.4h-9.2V270.9
			c11.5-7.1,25.6-16.4,33.5-23.1c14.8-12.7,75.6-110.9,75.6-123.2S278,59.2,278,59.2s11.9-15.4,38.5-4.2c0,0,22.4,42,24.7,75.4
			c0,0-10.1,68.9-15.5,90.6h141.2C501.5,221.1,494.9,270.6,462.4,275.7z"/>
	</g>
</g>
</svg>
