<svg xmlns="http://www.w3.org/2000/svg" width="512" height="512" viewBox="0 0 512 512"><path fill="#FFF" d="M497.3 277.5c25.9-25.8 17.9-78-27-78l-118.2.1c4.5-25 11-66.5 10.7-70.4-2.5-37.1-26.1-82.3-27.2-84.1-4.3-8-26.1-18.9-48-14.3-28.3 6.1-31.2 24.1-31.1 29.1 0 0 1.2 49.5 1.3 62.6-13.5 29.8-60.3 108-74.4 114-3.4-2-7.2-3.2-11.2-3.2H22.9C10.2 233.3 0 243.6 0 256.2v206.4c.9 11.1 10.3 19.9 21.5 19.9h134.1c11.9 0 21.6-9.7 21.6-21.6V454s5-.4 7.2 1.1c8.6 5.5 19.3 12.4 33.2 12.4h200.2c74.8 0 66.8-66.4 60-75.5 12.6-13.8 20.5-38 9.8-57.2 8.2-8.7 22.6-32.6 9.7-57.3zM151.1 460.8H21.5v-206h129.6v206zm311.3-185.1l-1.2 5.1c34.5 9.8 16.1 49.6-8.6 52.1l-1.2 5.1c33.1 8.4 17.3 49.3-8.6 52.1l-1.2 5.1c27 4.4 20.5 50.5-20.4 50.5l-203.6.1c-14.4 0-27.5-16.4-38-16.4h-9.2V270.9c11.5-7.1 25.6-16.4 33.5-23.1 14.8-12.7 75.6-110.9 75.6-123.2S278 59.2 278 59.2s11.9-15.4 38.5-4.2c0 0 22.4 42 24.7 75.4 0 0-10.1 68.9-15.5 90.6h141.2c34.6.1 28 49.6-4.5 54.7z"/></svg>