<svg xmlns="http://www.w3.org/2000/svg" width="387.7" height="94.2" viewBox="0 0 387.7 94.2"><path d="M32.3 94.2H13.4L0 81.6V31.7L8.6 7.5 26.1 2h18.8l10.3 9.7v14.1h-11l-3.6-10.2h-23v64h23.3l4.2-12h11v19.1l-23.8 7.5zm76.8-.8v-9l4-1.3-3.8-12.8h-23l-4.2 12.2 6.2 1.9v9h-29v-9l9.1-3L97.7 0h5.4l28.2 82.1 6.9 2.3v9h-29.1zm-7-50.5V28.5h-1.6l-9.9 29.7h15.7l-4.2-15.3zm69.8 50.5h-29.7v-9l5.9-1.9V13.3l-5.9-1.7V2.4H172v9.1l-6.3 1.7v66.3h16.4l6.3-17.5h7.4v24l-23.9 7.4zm58.3 0h-29.7v-9l5.9-1.9V13.3l-5.9-1.7V2.4h29.8v9.1l-6.3 1.7v66.3h16.4l6.3-17.5h7.4v24l-23.9 7.4zm71-72.2l-2.4-7.1h-16.4V38h10.9l2.4-6.9h9.8v24.1h-9.8l-2.2-6.2h-11.2v30.5H297l4.2-11.8h10.9V86l-23.9 7.4h-29.3v-9l5.9-1.9V13.3l-5.9-1.7V2.4h43.3l9.9 9.3v9.5h-10.9zm77.9 65l-23.3 7.3h-35.1v-9l5.9-1.9V13.3l-5.9-1.7V2.4h53.5L387.6 15v45.8l-8.5 25.4zm-9-72.1h-25.8v65.5h25.8V14.1z"/></svg>