<svg xmlns="http://www.w3.org/2000/svg" width="387.7" height="94.2" viewBox="0 0 387.7 94.2"><path d="M20.9 96.4L.8 95.2c1-4.6 1.8-9.2 2.3-13.6C22.4 65 31.2 48.3 29.5 31.7c1.6-8.1.8-16.3-2.1-24.7l12-6.6C45.2.1 51-.3 56.7-.6 62 2.8 66.8 6 71.3 9.4c2 5 3.5 10 4.3 15.1-3.1.1-6.3.2-9.4.2-1.7-3.6-3.7-7.1-6.2-10.7-6.7.3-13.4.5-20.1.9 9.9 21.8 4.1 43.7-17.4 65.6 7.5.4 15.1.7 22.6 1 4.8-4.2 9.1-8.3 12.9-12.5l10.1.3c-3.7 6.8-8.4 13.7-14.2 20.5-10.4 2.3-21.4 4.5-33 6.6z"/><path d="M103.7 99.2c1.9-3.4 3.7-6.8 5.3-10.1 1.6-.5 3.2-.9 4.7-1.4.9-4.8 1.6-9.6 2-14.4-7.1-.1-14.2-.3-21.2-.4-3.3 4.5-7 8.9-11.1 13.4 1.6.8 3.2 1.5 4.9 2.3-2 3.3-4.2 6.7-6.6 10-10.3-.4-20.6-.8-30.9-1.3 3-3.2 5.8-6.5 8.4-9.7 3.9-.9 7.7-1.9 11.4-2.9 29.9-29.2 36.9-59.1 33.8-89.3 1.7-.1 3.3-.1 5-.2 20.4 30 23.8 60.7 22.7 92l6 2.7c-1.1 3.4-2.2 6.8-3.5 10.3-10.3-.4-20.6-.7-30.9-1zm12.2-56.6c.4-5.3.4-10.7 0-16h-1.4c-1.9 11-5.6 22-11.5 32.9 4.6.1 9.2.1 13.8.1.2-5.6-.1-11.3-.9-17zm54.6 57.9c-10.5-.1-21.1-.2-31.6-.4 1.2-3.4 2.2-6.9 3.2-10.3 2.2-.7 4.3-1.4 6.5-2.1 6.5-26.4 8.1-52.6 5-78.7-1.8-.6-3.6-1.3-5.5-1.9-.5-3.4-1.1-6.9-1.8-10.3 9.1-.2 18.3-.3 27.4-.4.3 3.5.5 6.9.7 10.4-1.8.7-3.6 1.3-5.4 2 1.8 25.1 1 50.3-2.6 75.7 5.3 0 10.6.1 15.9.1 2.4-6.7 4.6-13.4 6.6-20.1h6.6c.1 9.2.1 18.3.2 27.5-7.9 2.9-16.3 5.7-25.2 8.5zm62-.2c-10.5.1-21.1.2-31.6.2-.2-3.5-.3-6.9-.4-10.4 1.9-.7 3.9-1.5 5.8-2.2-1.8-26.6-2.2-53-1.4-79.2-1.7-.7-3.4-1.3-5.2-2 .1-3.5.1-6.9.2-10.4 9.1 0 18.3.1 27.4.2-.5 3.4-.9 6.9-1.3 10.3-1.9.6-3.8 1.3-5.7 1.9-2 25.1-1 50.3 2.8 75.6 5.3 0 10.6-.1 15.9-.2.5-6.7 1.1-13.3 1.9-20 2.2 0 4.4 0 6.6-.1 1.7 9 4.1 18.1 7.2 27.2-6.9 3.2-14.3 6.2-22.2 9.1zm53.7-81.5c-.2-2.6-.3-5.2-.3-7.9-4.8-.1-9.6-.3-14.4-.4-2 8.8-2.9 17.7-2.7 26.6 3.1 0 6.1 0 9.2.1.6-2.5 1.3-5 2.2-7.5 2.8 0 5.5.1 8.3.1-.5 8.8.3 17.6 2.6 26.4-2.8 0-5.7.1-8.5.1-1.2-2.3-2.2-4.6-3.2-6.8h-9.6c1.6 11.3 4.9 22.7 10.1 34.1 4.7-.1 9.5-.2 14.2-.4-1-4.4-1.7-8.8-2.2-13.2 3.3-.1 6.6-.1 9.9-.2 3 6.7 6.9 13.3 11.6 20-6.2 3-12.6 6-19.3 9.1-10.4.4-20.8.6-31.2.9-1.5-3.4-2.8-6.8-4.1-10.2 1.7-.8 3.4-1.5 5.1-2.3-10-26.1-12.6-52.1-7.8-77.9-1.6-.7-3.2-1.4-4.9-2.1.6-3.4 1.4-6.8 2.2-10.2 13.3.3 26.5.7 39.8 1.2 1.6 3.5 3.2 7 5 10.4-1.2 3.5-2.1 6.9-2.8 10.4-3-.1-6.1-.2-9.2-.3z"/><path d="M381.5 86.7c-4.9 2.9-9.9 5.9-15.2 8.9-12.4.7-24.9 1.4-37.3 1.9-2.9-3.3-5.5-6.5-7.9-9.8 1.5-.8 2.9-1.5 4.4-2.3-18.7-24.9-23.6-49.8-14.6-74.5l-4.5-2.1c1.2-3.3 2.7-6.6 4.4-9.9 16.4.7 32.8 1.6 49.2 2.6.8 4.5 2 9 3.7 13.4-8 15.3-7.1 30.6 2.6 45.8 2.5 8.7 7.8 17.3 15.2 26zm-33-73.4c-7.5-.4-15.1-.7-22.6-1-9.3 23-4.5 46.1 14.3 69.2 8.4-.3 16.7-.7 25.1-1.1-22.1-22.4-27.7-44.7-16.8-67.1z"/></svg>