<svg xmlns="http://www.w3.org/2000/svg" width="478.2" height="92.2" viewBox="0 0 478.2 92.2"><path d="M32.3 92.2H13.4L0 79.6V29.7L8.6 5.5 26.1 0h18.8l10.3 9.7v14.1h-11l-3.6-10.2h-23v64h23.3l4.2-12h11v19.1l-23.8 7.5zm96.1-80.9v69.2l5.9 1.9v9h-29.8v-9l6.3-1.9V48H87.4v32.5l5.9 1.9v9H63.4v-9l6.3-1.9V11.3l-5.9-1.7V.4h29.8v9.1l-6.3 1.7V36h23.4V11.3l-5.9-1.7V.4h29.8v9.1l-6.2 1.8zm56.7 7.9l-2.4-7.1h-16.4V36h10.9l2.4-6.9h9.8v24.1h-9.8l-2.2-6.2h-11.2v30.5h14.6l4.2-11.8h11V84l-24 7.4h-29.3v-9l5.9-1.9V11.3l-5.9-1.7V.4H186l9.9 9.3v9.5h-10.8zm55.9 73h-18.8l-13.4-12.6V29.7l8.6-24.2L234.8 0h18.8L264 9.7v14.1h-11l-3.6-10.2h-23v64h23.3l4.2-12h11v19.1L241 92.2zm74.2-.8V80l-11.3-16-6-13.3h-1.7v29.8l5.9 1.9v9h-29.8v-9l6.3-1.9V11.3l-5.9-1.7V.4h29.8v9.1l-6.3 1.7v25.9h1.7l2.2-7.5 16.4-19.1.1-10.2h23v9l-8.3 2.7-24.6 26.3 30.5 41.4 8.2 2.6v9h-30.2zm76.4-72.2l-2.4-7.1h-16.4V36h10.9l2.4-6.9h9.8v24.1h-9.8L384 47h-11.2v30.5h14.6l4.2-11.8h10.9V84l-23.9 7.4h-29.3v-9l5.9-1.9V11.3l-5.9-1.7V.4h43.3l9.9 9.3v9.5h-10.9zm78 64.9l-23.3 7.3h-35.1v-9l5.9-1.9V11.3l-5.9-1.7V.4h53.5L478.2 13v45.8l-8.6 25.3zm-9-72h-25.8v65.5h25.8V12.1z"/></svg>