<svg xmlns="http://www.w3.org/2000/svg" width="478.2" height="92.2" viewBox="0 0 478.2 92.2"><path d="M17.8 93.9c-6.7-.3-13.4-.6-20.1-1 2.4-4.5 4.5-9 6-13.4 23.6-16.6 34.1-33.2 31.5-49.9 1.2-8.1-.6-16.3-5.1-24.6C33.7 3 37.4.9 41-1.2c5.8-.3 11.7-.6 17.5-.8 6.1 3.2 11.6 6.5 16.6 9.8 2.8 5 4.9 9.9 6.1 14.9-3.2.1-6.3.1-9.5.2-2-3.5-4.4-7.1-7.4-10.6-6.7.2-13.5.5-20.2.7 13.1 21.7 6.2 43.5-20.5 65.2 7.5.3 15.1.6 22.6.8 5.8-4.1 10.9-8.3 15.4-12.4 3.4.1 6.7.1 10.1.2-4.8 6.7-11 13.5-18.7 20.2-11.1 2.4-22.8 4.7-35.2 6.9z"/><path d="M140.9 7.7c7.8 25.5 4 51.1-11.4 76.8 1.5.7 3.1 1.5 4.6 2.2-2 3.4-4.2 6.7-6.5 10.1-10.6-.2-21.2-.5-31.7-.8 3-3.3 5.8-6.6 8.4-9.9 2.6-.6 5.2-1.3 7.8-1.9 8.4-12 13.9-23.9 16.3-35.9-6.7 0-13.5 0-20.2-.1-2.9 11.8-9.3 23.5-19.3 35.3 1.4.7 2.8 1.5 4.2 2.2-2.8 3.3-5.8 6.6-9.1 9.8-10.6-.3-21.2-.7-31.7-1.1 3.9-3.2 7.6-6.4 10.9-9.6 2.8-.6 5.6-1.2 8.3-1.8C95.1 58.2 101 33.6 89 9c-2.1-.6-4.1-1.1-6.2-1.7C81 4.1 79 .8 76.6-2.4c9.2-.4 18.5-.7 27.7-1 2 3.3 3.7 6.6 5.2 9.9-1.6.7-3.2 1.4-4.8 2 3.8 8.9 5.6 17.8 5.4 26.7 6.6 0 13.3-.1 19.9-.1.2-9.1-1.3-18.1-4.6-27.1l-6-1.8c-1.3-3.3-2.9-6.6-4.8-10 9.2-.3 18.5-.5 27.7-.7 1.4 3.4 2.7 6.7 3.7 10.1-1.8.8-3.5 1.5-5.1 2.1z"/><path d="M192.3 15.9c-1-2.7-2-5.3-3.1-8-4.8 0-9.7.1-14.5.2 1.7 8.9 2.5 17.9 2.4 26.9h9.3c.7-2.6 1.4-5.2 2-7.7h8.4c.3 9.1-.1 18.2-1 27.3h-8.6c-.3-2.3-.7-4.7-1.1-7h-9.6c-1.2 11.5-3.9 23-8.1 34.5 4.8.1 9.5.1 14.3.2 2.7-4.5 5-8.9 7.2-13.4 3.3 0 6.6 0 10 .1-1.1 6.9-2.5 13.9-4.2 20.9-8.8 2.7-18 5.5-27.7 8.1-10.4-.2-20.8-.3-31.2-.6 2.2-3.4 4.2-6.8 6-10.1 2.4-.7 4.7-1.3 7-2 12.6-26 15.7-51.8 9.3-77.5-1.9-.6-3.8-1.2-5.8-1.9-1-3.4-2.1-6.8-3.4-10.1 13.4-.3 26.8-.5 40.2-.7 3.8 3.4 7.4 6.9 10.8 10.4.5 3.6.8 7.2 1.1 10.8-3.4-.4-6.6-.4-9.7-.4zm48.8 83.2H221c-4.3-4.9-8.1-9.7-11.8-14.6 3-19 4.3-38 4-56.8 2.3-9.2 4.2-18.3 6.2-27.4 5.1-2.1 10.4-4.2 15.7-6.3h17.5c3 3.7 5.9 7.3 8.7 11-.4 5.3-.7 10.6-.8 16H251c-1-3.9-1.9-7.7-2.9-11.6h-20.2c.8 24.2.4 48.5-1.2 72.9h22.6c1.1-4.6 2.2-9.1 3.2-13.7h10.1c.7 7.3 1.5 14.5 2.6 21.8-7.6 2.9-15.6 5.8-24.1 8.7zm78.9-1.6c-2.2-4.3-4.1-8.6-5.9-12.9-6.1-6-11.5-12-16.2-18-2.9-5-5.5-10-7.8-15h-1.5c1.2 11.3 3.5 22.6 6.9 33.9l6.6 2.1c1.2 3.4 2.5 6.8 3.9 10.3-10.6.1-21.2.3-31.7.3-.7-3.4-1.4-6.9-2.1-10.3 2-.7 3.9-1.5 5.9-2.2-5.5-26.4-6.9-52.6-4.1-78.6-1.7-.7-3.4-1.3-5.1-2 .3-3.4.7-6.9 1.2-10.3l27.7.3c-.9 3.4-1.6 6.8-2.3 10.3-2 .6-4 1.3-6 1.9-1.5 9.7-2.2 19.5-2 29.3h1.5c.6-2.8 1.2-5.7 1.9-8.5 4.9-7.1 10.4-14.3 16.8-21.3.9-3.8 1.9-7.6 3.1-11.4 7.1.1 14.2.3 21.3.4-1.4 3.3-2.5 6.7-3.5 10-2.8.9-5.5 1.9-8.2 2.9-9.6 9.7-17.2 19.4-23.9 29.3 9.1 15.6 21 31.1 39.1 46.4 3.2.9 6.4 1.8 9.7 2.7 2 3.4 4.2 6.7 6.6 10.1-10.5-.1-21.2.1-31.9.3z"/><path d="M371.3 17.2c0-2.6.2-5.2.6-7.7-4.8-.1-9.7-.2-14.5-.4-3.2 8.7-4.6 17.4-4.4 26.1 3.1 0 6.2 0 9.3.1.6-2.5 1.4-5 2.3-7.4 2.8 0 5.6.1 8.4.1-.9 8.6.2 17.3 3.3 26-2.9 0-5.7 0-8.6.1-1.4-2.2-2.6-4.5-3.7-6.7h-9.6c2.2 11.1 7.2 22.3 14.9 33.5l14.3-.3c-2-4.3-3.6-8.6-4.8-13 3.3-.1 6.6-.1 10-.2 4.1 6.6 9.4 13.1 15.9 19.7-5.4 2.9-11.1 5.9-17 8.8l-31.2.9c-2.5-3.4-4.8-6.7-6.8-10.1 1.5-.7 3.1-1.5 4.6-2.2-16.2-25.7-20.2-51.2-12-76.6-1.5-.7-3.1-1.4-4.6-2 1.1-3.4 2.4-6.7 3.9-10.1 13.4.3 26.8.7 40.2 1.2.9 3.4 2 6.9 3.3 10.3-1.7 3.4-3.1 6.8-4.1 10.2-3.4-.2-6.5-.3-9.7-.3z"/><path d="M472.6 84.5c-4.2 2.8-8.5 5.7-13 8.5-12.4.6-24.9 1.1-37.3 1.6-3.9-3.2-7.4-6.4-10.7-9.6 1.3-.7 2.6-1.5 3.9-2.2-24.9-24.6-31-49.1-18.4-73.5-1.4-.7-2.9-1.3-4.3-2 1.7-3.2 3.8-6.5 6.1-9.7 16.5.6 33.1 1.4 49.6 2.2-.1 4.5.3 8.9 1.4 13.3-10.4 15.3-9.7 30.6 2 45.8 3.9 8.4 10.9 17 20.7 25.6zm-37.6-73c-7.6-.3-15.2-.6-22.8-.8-12.6 22.8-6.9 45.6 17.3 68.5 8.4-.3 16.7-.6 25.1-.9-27.4-22.4-33.9-44.6-19.6-66.8z"/></svg>