<svg xmlns="http://www.w3.org/2000/svg" width="708.5" height="220" viewBox="0 0 708.5 220"><path d="M77.4 82.8l-14.4.3c-3.4-3.8-7-7.5-10.7-11.2C51 56.9 47 42 40.2 27c-1-7.4-2.6-14.9-4.7-22.4 3.8-2.1 7.6-4.1 11.4-6.2 5.2-.4 10.5-.8 15.7-1.2C67.2 0 71.7 2.7 76 5.6c2.2 4.4 4.2 8.8 6 13.1-3 .2-5.9.4-8.9.6-2.3-3.1-4.8-6.2-7.3-9.2-6.2.4-12.5.9-18.8 1.4 10.5 19.4 16.7 38.8 18.5 58.3 6-.2 11.9-.4 17.9-.5.7-3.7 1.3-7.4 1.8-11.2 2.8-.1 5.7-.2 8.5-.3.9 5.9 1.5 11.9 1.8 17.8-6 2.4-12 4.8-18.1 7.2zm59.3-79.3c8.3 22.3 12.9 44.5 14 66.8 1.5.6 3.1 1.2 4.6 1.7.1 2.9.2 5.8.2 8.7l-22.9.3c0-2.9-.1-5.7-.2-8.6 1.6-.6 3.2-1.3 4.8-1.9-.6-10.4-2-20.8-4.2-31.2-6.1.2-12.2.5-18.3.8 2.4 10.3 3.9 20.6 4.5 30.8 1.5.6 3.1 1.1 4.6 1.7.1 2.9.2 5.7.2 8.6-7.6.1-15.2.3-22.9.4 0-2.8-.1-5.6-.2-8.4 1.6-.6 3.2-1.3 4.7-1.9-1.4-21.7-7.1-43.3-17.2-65-1.6-.4-3.5-.8-5.4-1.3-1.4-2.8-2.8-5.7-4.4-8.5 8.3-.6 16.6-1.2 24.9-1.7 1.4 2.9 2.7 5.8 4 8.7-1.5.7-3 1.3-4.5 2 3.4 7.8 6.3 15.6 8.6 23.4 6.2-.3 12.3-.6 18.5-.9-2.2-7.9-4.8-15.8-8-23.7-1.8-.5-3.7-.9-5.5-1.4-1.2-2.9-2.5-5.8-3.8-8.7l24.9-1.5c1.2 2.9 2.4 5.9 3.4 8.8-1.3.6-2.9 1.3-4.4 2zM202.5.4c4 16 6.8 31.9 8.4 47.9-1.4 8.5-3.1 16.9-5.1 25.4-5.9 2.5-11.8 5-17.7 7.4-3.9 0-7.8.1-11.7.1-3.4-4.1-6.9-8.2-10.6-12.2-1.1-22.2-5.4-44.3-13-66.5-1.8-.5-3.6-1-5.4-1.4-1.1-3-2.2-5.9-3.3-8.9 8.3-.5 16.6-.9 24.9-1.3 1 3 2 6 2.9 9-1.6.7-3.1 1.3-4.7 2 6.8 21.6 10.8 43.3 11.9 64.9 6.5-.1 13-.2 19.5-.4-1-21.9-4.6-43.7-10.6-65.5-1.8-.5-3.6-1-5.3-1.5-.9-3-1.8-6-2.8-9 8.3-.4 16.5-.7 24.8-1.1.8 3 1.6 6.1 2.4 9.1-1.5.8-3 1.4-4.6 2zm48.2 80.1c-4.8 0-9.6.1-14.4.1-3.4-4.2-6.9-8.4-10.5-12.6-.5-16.6-2.3-33.2-5.2-49.8.9-8.1 1.6-16.2 2.1-24.4 4.4-2 8.8-4 13.3-6 5.2-.2 10.5-.3 15.7-.5 3.5 3.2 6.9 6.3 10.2 9.5.7 4.7 1.4 9.5 2 14.2-3 .1-5.9.1-8.9.2L250.5 1c-6.3.2-12.5.3-18.8.5 4.2 21.3 6.6 42.7 7.4 64.2 6-.1 11.9-.1 17.9-.2.9-4 1.9-8.1 2.7-12.1 2.8 0 5.7-.1 8.5-.1.3 6.4.5 12.9.6 19.3-6 2.8-12 5.4-18.1 7.9zm56.8-1.1c0-3.9 0-7.8-.1-11.7-2.9-5.4-6-10.8-9-16.2-1.7-4.5-3.5-9-5.3-13.5h-1.4c.5 10.1.9 20.2 1 30.3 1.5.6 3 1.3 4.6 1.9v9.2c-7.6 0-15.2.1-22.9.1 0-3 0-6.1-.1-9.1 1.6-.6 3.2-1.3 4.8-1.9-.4-23.4-2.1-46.8-5.2-70.1-1.7-.6-3.4-1.1-5.1-1.7-.4-3.1-.9-6.2-1.4-9.2 8.3-.2 16.6-.4 24.9-.5.3 3.1.7 6.2 1 9.3-1.7.6-3.3 1.2-5 1.9.9 8.8 1.7 17.5 2.3 26.3h1.4c.4-2.6.8-5.1 1.1-7.7 3.9-6.5 7.7-13 11.7-19.5-.2-3.5-.5-6.9-.8-10.4 6.4-.1 12.8-.2 19.2-.2.2 3.1.3 6.1.5 9.2-2.2.9-4.5 1.9-6.7 2.8-6.2 9-12.2 18-18.1 27 8.9 13.9 17.1 28 25 42 2.1.9 4.2 1.7 6.3 2.6v9.2c-7.3-.1-15-.1-22.7-.1zm97.7-81.5c-2.3 27.9-3.4 55.9-3.4 84h-8.3c-6-15-11.8-30-17.6-44.9-1.9-10.4-3.9-20.8-5.8-31.3h-1.3c-.4 20.8-.7 41.6-.8 62.4 1.5.6 3.1 1.3 4.6 1.9v9.3h-19.4v-9.4c1.6-.6 3.2-1.3 4.8-1.9 0-23.6.1-47.1.3-70.5-1.6-.9-3.2-1.8-4.7-2.7v-8.3c6.9 0 13.9 0 20.8.1 3.4 8.6 6.7 17.3 9.9 25.9 2.2 12.3 4.5 24.6 6.8 36.9h1.2c.4-17.2 1.2-34.4 2.3-51.6-1.6-.6-3.2-1.2-4.7-1.8l.6-9.3 21.1.3-.9 9.3c-1.9.5-3.7 1-5.5 1.6zm54.6 75.2c-6 2.4-11.9 4.9-17.9 7.3-5.2 0-10.4-.1-15.5-.1l-10.2-12.9c.3-16.9 1.1-33.8 2.5-50.7 3-8.1 6.1-16.3 9.5-24.4 5.1-1.8 10.2-3.5 15.3-5.3l21.7.6c2.9 4.3 5.8 8.7 8.7 13-3 15.7-5.2 31.3-6.4 47.1-2.8 8.5-5.4 16.9-7.7 25.4zm-.4-71.8L434.6.7c-2.7 21.6-4.4 43.2-4.8 64.8 7.8.1 15.5.1 23.3.2.6-21.5 2.7-43 6.3-64.4zm50.7 78.9c-2.6-10.4-4.7-20.8-6.3-31.2.4-4 .9-7.9 1.4-11.9-2.7-.1-5.5-.1-8.2-.2-1.4 10.7-2.3 21.5-2.7 32.2 1.6.6 3.2 1.3 4.8 1.9-.1 3-.1 6-.1 9-7.6-.1-15.2-.2-22.9-.2 0-3 0-6 .1-9 1.5-.6 3.1-1.2 4.6-1.8.7-23.1 3.6-46.2 8.7-69.2-1.5-.6-3-1.3-4.5-1.9.7-3 1.4-6.1 2.1-9.1 13.2.5 26.4 1 39.5 1.6 2.2 3.9 4.4 7.9 6.6 11.8-2.3 7.8-4.3 15.6-5.9 23.4-3.9 3.5-7.8 7-11.5 10.5 1.5 11.1 3.5 22.2 6.2 33.2 1.8.7 3.5 1.5 5.3 2.2-.1 2.9-.2 5.9-.2 8.8-5.6.1-11.3 0-17-.1zm-6.3-79c-1.9 7.9-3.6 15.7-4.9 23.6 4.9.1 9.7.3 14.6.5 1.5-7.8 3.3-15.7 5.4-23.5-5.1-.3-10.1-.5-15.1-.6zm61 79.7c-2.6-10.1-4.5-20.2-5.8-30.4.6-3.9 1.2-7.7 2-11.6-2.7-.1-5.5-.2-8.2-.3-2 10.5-3.2 21-3.7 31.5 1.6.6 3.2 1.3 4.8 1.9-.1 2.9-.2 5.8-.2 8.7l-22.9-.3c0-2.9 0-5.9.2-8.8 1.5-.6 3.1-1.2 4.6-1.8 1-22.6 5.2-45.1 12.5-67.6-1.4-.6-2.9-1.3-4.3-1.9 1-3 2-6 3.1-8.9 13.2.7 26.4 1.4 39.5 2.2l5.4 11.7c-3.1 7.6-5.7 15.1-7.8 22.7-4.2 3.4-8.2 6.7-12.2 10.1.9 10.8 2.6 21.6 5.1 32.4 1.7.7 3.5 1.4 5.3 2.2-.1 2.9-.2 5.7-.2 8.6-5.7-.2-11.4-.3-17.2-.4zm-2.5-77.1c-2.7 7.7-5 15.4-6.9 23.1 4.9.2 9.7.4 14.6.6 2-7.6 4.5-15.3 7.4-22.9-5-.3-10.1-.6-15.1-.8zm23.3 77.5c0-2.9.1-5.7.2-8.6 1.6-.6 3.3-1.1 4.9-1.7 1.3-21.9 6.7-43.7 16.3-65.5-1.5-.7-3-1.3-4.5-2 1.2-2.8 2.6-5.7 4-8.5 8.3.6 16.6 1.1 24.9 1.7-1.5 2.8-3 5.6-4.3 8.4-1.9.4-3.8.9-5.6 1.3-10.1 21.6-15.9 43.3-17.3 64.9 1.5.6 3 1.3 4.4 1.9-.1 2.8-.2 5.6-.2 8.4-7.5-.1-15.1-.2-22.8-.3zm70.6-9.1c-3.8 3.7-7.4 7.4-10.8 11.2-3.9-.1-7.8-.2-11.8-.2-6.1-2.4-12.1-4.8-18.1-7.2.2-6 .8-12.1 1.8-18.1 2.8.1 5.5.2 8.3.3.5 3.7 1.1 7.4 1.9 11.2 5.1.2 10.2.3 15.4.5.8-8 2.2-15.9 4.5-23.9-5.7-2.6-11.3-5.2-16.9-7.8-2.1-3.6-4-7.1-5.9-10.7 5.5-8.5 11.8-16.9 19-25.3 5.8-1.3 11.7-2.6 17.6-3.9 4.2.3 8.3.7 12.5 1 1 3.2 2.1 6.3 3.2 9.5-2.6 4.4-5 8.7-7.2 13.1-3-.2-6-.4-8.9-.6.5-3.2 1.2-6.3 1.9-9.5-4.9-.4-9.9-.7-14.8-1.1-3.4 6.6-6.3 13.3-8.8 19.9 5.3.3 10.6.6 15.9 1 2.2 4.3 4.5 8.6 7 12.8-3.1 9.1-5 18.5-5.8 27.8zm-325.6 80.1c-8 27.9-17.4 55.9-29.6 83.9-1.9 0-3.8 0-5.7-.1-2.5-14.7-4.7-29.3-7-43.9.4-3.1.8-6.3 1.2-9.4h-1.4c-7.3 17.6-15.7 35.2-25.6 52.7-1.9 0-3.7-.1-5.6-.1-1.9-28.3-3.8-56.4-7.2-84.3-1.8-.7-3.5-1.5-5.3-2.2.5-3.1.9-6.2 1.3-9.3 7.7.1 15.5.1 23.2.2-.3 3.1-.7 6.1-1 9.2-1.1.4-2.3.9-3.4 1.3 1.8 13.2 3.4 26.5 4.8 39.8-.6 3.5-1.3 7-1.9 10.5h1.4c5.6-11.8 10.6-23.6 15.2-35.4l-2.1-13.8c-1.8-.7-3.6-1.5-5.4-2.2.3-3.1.7-6.2 1-9.3 7.7.1 15.4.1 23.1.1-.2 3.1-.4 6.2-.7 9.2l-3 .9c2.3 12.8 4.4 25.7 6.6 38.6-.4 4.1-.9 8.2-1.3 12.3h1.4c6-16.8 11.1-33.6 15.7-50.4-1-.4-2.1-.8-3.1-1.3.2-3.1.3-6.3.5-9.4H338c-.1 3.1-.1 6.3-.2 9.4-2.3 1.2-4.7 2.1-7.2 3zm61.9 74.7c-7 2.6-14.2 5.2-21.5 7.8h-19.5c-4.3-4.4-8.4-8.7-12.4-13.1.6-17.2 1.1-34.3 1.6-51.4 2.6-8.3 5-16.6 7.4-24.9 4.7-1.9 9.3-3.8 13.9-5.7h20.6c3.7 4.3 7.6 8.6 11.5 12.9.9 16.1 2.2 32.1 3.7 48.2-1.6 8.8-3.4 17.5-5.3 26.2zm-12.6-73.3h-24.6c0 21.9.1 43.9.2 66 9.3 0 18.7 0 28-.1-1.5-22-2.7-44-3.6-65.9zm75.7-2.9c4.1 27.9 10.6 56 19.5 84l-10.5.3c-11.9-14.8-22.2-29.7-31.5-44.6-4.1-10.4-7.8-20.9-11.1-31.3h-1.3c2.2 20.9 5.2 41.8 9.1 62.7l6 1.8c.6 3.1 1.3 6.3 2 9.4-8.1.2-16.1.3-24.2.4-.5-3.1-.9-6.3-1.4-9.4 1.9-.7 3.7-1.3 5.6-2-3.7-23.7-6.5-47.4-8.4-71-1.6-.9-3.3-1.8-4.9-2.7-.2-2.8-.4-5.6-.5-8.4 6.6 0 13.2-.1 19.8-.1 4.3 8.6 8.8 17.3 13.7 25.9 4.6 12.3 9.7 24.5 15.4 36.8h1.4c-3.9-17.3-6.9-34.5-9.2-51.7-1.7-.6-3.3-1.2-5-1.7-.4-3.1-.7-6.2-1.1-9.3 6.7 0 13.4-.1 20.1-.2.4 3.1.8 6.2 1.3 9.3-1.5.6-3.1 1.2-4.8 1.8z"/></svg>