<svg xmlns="http://www.w3.org/2000/svg" width="409.9" height="92.2" viewBox="0 0 409.9 92.2"><path d="M74.6 17.6l-9.9.3c-1.4-2.5-3.1-4.9-4.9-7.4l-15 .6c4.3 8.3 6.3 16.7 6 25.1 3.1 0 6.2-.1 9.3-.1.8-2.4 1.4-4.8 1.8-7.2 2.8-.1 5.6-.1 8.4-.2.9 8.8-.4 17.6-3.9 26.4-2.9 0-5.7-.1-8.6-.1.3-2.2.4-4.3.5-6.5-3.2 0-6.4 0-9.6-.1-3.5 11-11.2 22.1-22.9 33.1 1.3.7 2.6 1.5 4 2.2-3.3 3.1-6.9 6.2-10.9 9.4-10.6-.6-21.3-1.2-31.9-1.8 4.6-3 8.8-6 12.7-9 2.9-.5 5.8-1 8.6-1.6C36 57.5 42.8 34.3 28.8 11c-2.1-.5-4.2-1-6.4-1.5-2.1-3-4.5-6.1-7.3-9.1 13.7-.9 27.4-1.6 41.2-2.3 5.3 3.1 10.1 6.2 14.5 9.4 1.6 3.4 2.8 6.7 3.8 10.1zm45.6 72.1c-9.2 2.6-19 5.1-29.3 7.6-7.2-.2-14.5-.5-21.7-.8-.7-4.8-1.5-9.5-2.4-14.2 13.8-17.9 20-35.8 18.5-53.6 1.7-8.8 1.7-17.5.2-26.3C89.9.2 94.2-2 98.7-4.1c8-.3 16.1-.5 24.1-.8 5.9 4.5 11.2 9.1 16.1 13.8 3.4 17.4 3.1 34.9-.7 52.5-4.5 9.4-10.5 18.9-18 28.3zm3.5-79.5c-8.9.2-17.8.4-26.7.7 7.2 23.1 3.5 46.4-11.4 69.7 9.9.3 19.7.5 29.6.7 11.1-23.8 13.9-47.5 8.5-71.1zM170.6 98c-10.5-.1-21.1-.3-31.6-.5 1.4-3.4 2.7-6.8 3.8-10.2 2.2-.7 4.4-1.4 6.6-2 7.8-26.2 9.8-52.3 5.8-78.2-1.8-.6-3.7-1.3-5.6-1.9-.6-3.4-1.4-6.8-2.2-10.2 9.2-.2 18.5-.3 27.7-.4.4 3.4.8 6.9 1.1 10.3-1.8.7-3.6 1.3-5.4 2 2.6 24.9 1.5 50-3.3 75.2 5.3 0 10.6.1 16 .1 2.8-6.7 5.2-13.3 7.4-20h6.6c-.2 9.1-.6 18.2-1 27.4-8.2 2.9-16.8 5.7-25.9 8.4zm89.8-8.6c-7 2.9-14.3 5.7-22 8.6-12.4.1-24.9.2-37.3.2.1-3.5.2-6.9.2-10.3 2-.7 4-1.4 5.9-2.2-.3-26.5-.4-52.8-.2-78.9-1.7-.7-3.5-1.3-5.3-2 0-3.4-.1-6.9-.1-10.3 16.5 0 33.1.1 49.6.4 3.2 4.8 6.3 9.6 9.5 14.4-2.7 17.1-2.6 34.3.5 51.5-.7 9.4-.9 19-.8 28.6zm-15-81.5c-7.6-.1-15.2-.1-22.8-.2-1.3 24.7-.7 49.5 1.8 74.5 8.4 0 16.7-.1 25.1-.2-5.7-24.8-7.1-49.5-4.1-74.1zm62.2 9c-.1-2.6-.1-5.2 0-7.8-4.8-.1-9.7-.3-14.5-.4-2.4 8.8-3.5 17.6-3.3 26.4 3.1 0 6.2 0 9.3.1.6-2.5 1.4-5 2.3-7.5 2.8 0 5.6.1 8.4.1-.7 8.7.2 17.5 2.6 26.2-2.9 0-5.7 0-8.6.1-1.2-2.3-2.3-4.5-3.3-6.8h-9.6c1.7 11.3 5.4 22.5 11.1 33.9 4.8-.1 9.5-.2 14.3-.4-1.2-4.4-2.1-8.7-2.8-13.1 3.3-.1 6.6-.1 10-.2 3.2 6.6 7.4 13.2 12.5 19.9-6 3-12.2 6-18.8 9l-31.2.9c-1.7-3.4-3.3-6.8-4.7-10.2 1.7-.7 3.3-1.5 5-2.2C274.9 59 272 33.2 277.8 7.5c-1.6-.7-3.2-1.4-4.8-2 .8-3.4 1.7-6.8 2.7-10.2 13.3.3 26.6.7 40 1.2 1.4 3.5 2.9 6.9 4.6 10.4-1.3 3.4-2.4 6.9-3.3 10.3-3.1-.1-6.3-.2-9.4-.3z"/><path d="M403.9 84.6c-4.7 2.9-9.6 5.8-14.8 8.7-12.4.7-24.9 1.2-37.3 1.8-3.1-3.2-6-6.5-8.6-9.7 1.4-.7 2.8-1.5 4.3-2.2-20.1-24.9-25.1-49.6-14.9-74.2l-4.5-2.1c1.4-3.3 3-6.5 4.9-9.8 16.5.7 33.1 1.5 49.6 2.5.5 4.5 1.5 9 3 13.4-8.9 15.3-8.3 30.6 1.7 45.8 3.1 8.5 8.7 17.1 16.6 25.8zm-33.2-73.2c-7.6-.3-15.2-.7-22.8-.9-10.4 22.9-5.7 45.9 14.3 68.9 8.4-.3 16.7-.7 25.1-1-23.2-22.4-28.7-44.7-16.6-67z"/></svg>