<svg xmlns="http://www.w3.org/2000/svg" width="409.9" height="92.2" viewBox="0 0 409.9 92.2"><path d="M54.6 19.2H43.1l-2.3-7.1H23.9v24.3h10.9l2.4-6.9H47v25h-9.8L35 48.3H23.9v32.1l6 1.9v9H0v-9l6.3-1.9V11.3L.4 9.5V.4h44.4l9.8 9.3v9.5zm67 65.6l-23.3 7.4H78.1L64.6 79.6V29.7l8.6-24.2L90.7 0h25.9l13.6 12.6v46.9l-8.6 25.3zm-9-71.2H82.3v64h30.4v-64zm60.1 77.8H143v-9l5.9-1.9V11.3L143 9.5V.4h29.8v9.1l-6.3 1.7v66.3h16.4l6.3-17.5h7.4v24l-23.9 7.4zm87-7.3l-23.3 7.3h-35.1v-9l5.9-1.9V11.3l-5.9-1.7V.4h53.5L268.3 13v45.8l-8.6 25.3zm-9-72h-25.8v65.5h25.8V12.1zm72.7 7.1l-2.4-7.1h-16.4V36h10.9l2.4-6.9h9.8v24.1h-9.8l-2.2-6.2h-11.2v30.5h14.6l4.2-11.8h10.9V84l-23.9 7.4H281v-9l5.9-1.9V11.3L281 9.5V.4h43.3l9.9 9.3v9.5h-10.8zm77.9 64.9L378 91.4h-35v-9l5.9-1.9V11.3L343 9.5V.4h53.5L409.9 13v45.8l-8.6 25.3zm-9-72h-25.8v65.5h25.8V12.1z"/></svg>