<svg xmlns="http://www.w3.org/2000/svg" width="313.7" height="69.4" viewBox="0 0 313.7 69.4"><path fill="#277A9C" d="M35.9 68.5l-7.5-22.7V32.4H11.6v34l5.3 1.6v.5H0v-.6l4.9-1.6V2.8L0 1.3V.7h33.8L41.6 8v16.3l-10.8 9.8 11.9 32.3 4.9 1.5v.5H35.9zM11.6 30.2h23.3V2.4H11.6v27.8zm88.9 38.3v-.6l4.3-1.4-5.1-17.2h-25L68.9 66l6.3 1.9v.5H59v-.6l6.7-2.2L89.2.4l4.8 14h-7.6l-11 32.8h23.9l-4.7-17.3V16.3l17.2 49.9 4.9 1.6v.6h-16.2zm27.5 0V68l5.3-1.6V2.7L128 1.2V.8h16.9v.5L140 2.8v63.6l4.9 1.6v.6H128zm48.8.9l-16.4-5.1V55h2.1l3.6 10h23.5V36.2l-21.2-6.5h18.3l9.5 8.9v22.5l-8.9 8.3h-10.5zm-9.3-40l-7.3-6.8 6.1-18.8L178.4 0h10.3l6.3 5.8v6.4h-2.4l-2.9-8.5h-22v25.8l-.2-.1zm46.8 39.1v-.6l4.9-1.6V2.8l-4.9-1.5V.7h30.5l5.9 5.5v2.2h-2.2l-2-5.9H226v27.9h15.9l2-5.7h1.3v12h-1.3l-1.8-5.2H226V65h19l3.5-9.9h2.2v8.3l-16.5 5.1h-19.9zm51.6 0v-.6l4.9-1.6V2.8l-4.9-1.5V.7h39l1.9 1.7h-29.2V65H302l-11.3 3.5h-24.8zM307 2.7l6.7 6.3v35.8l-6.3 18.5-.4.1V2.7z"/></svg>