<svg xmlns="http://www.w3.org/2000/svg" width="388" height="96.5" viewBox="0 0 388 96.5"><path d="M45.4 94.4L35 63.1v-12H24.5v32.4l6.3 1.9v9H1v-9l5.9-1.9V14.3L1 12.6V3.4h47.3L60.5 15v23.8l-12.1 11 12.4 33.5 7 2.2v9H45.4zM24.5 15.1v23.8h18.4V15.1H24.5zm97.1 79.3v-9l4-1.3-3.8-12.8h-23l-4.2 12.2 6.2 1.9v9h-29v-9l9.1-3L110.1 1h5.4l28.2 82.1 6.9 2.3v9h-29zm-7-50.5V29.5H113l-10 29.7h15.7l-4.1-15.3zm40 50.5v-9l6.3-1.9V14.3l-6.3-1.7v-9h29.8v9l-5.9 1.7v69.2l5.9 1.9v9h-29.8zm91.5-11.6l-13.5 12.6h-15.4L193.4 88V68.6h10.8l4.3 12h20V54.4L204.3 47l-11.8-11 9-27.8 17.6-5.5h15l10.4 9.7v14.5h-11.1l-3.5-10.2h-18.2v21.6h20.1l14.4 13.4v31.1zm54.3-60.6l-2.4-7.1h-16.4V39h10.9l2.4-6.9h9.8v24.1h-9.8l-2.2-6.2h-11.2v30.5h14.6l4.2-11.8h10.9V87l-23.9 7.4H258v-9l5.9-1.9V14.3l-5.9-1.7V3.4h43.3l9.9 9.3v9.5h-10.8zm78 65l-23.3 7.3H320v-9l5.9-1.9V14.3l-5.9-1.7V3.4h53.5L387 16.1v45.8l-8.6 25.3zm-9-72.1h-25.8v65.5h25.8V15.1z" fill="#D34848" stroke="#9B1B1B" stroke-width="2" stroke-miterlimit="10"/></svg>