<svg xmlns="http://www.w3.org/2000/svg" width="321.7" height="78.7" viewBox="0 0 321.7 78.7"><path d="M25 77.8c.7-8.7 1.1-17.4 1.4-26.1 1.2-3.3 2.4-6.7 3.6-10h-8.8c-3.3 9-7 18-11.1 27 1.6.5 3.3 1 5 1.6-1.1 2.5-2.3 5-3.4 7.5h-27.3l3.9-7.5c2-.5 4.1-1 6.1-1.6C3.8 49.5 11.5 30.2 17.3 11c-1.4-.5-2.7-1-4.1-1.5.8-2.4 1.6-5 2.3-7.5h35.7l7.5 9.6c-1.3 6.6-2.8 13.2-4.5 19.8-4.1 3.1-8.3 6.1-12.6 9.2.5 9.3.9 18.6 1.1 27.9 1.9.6 3.7 1.2 5.6 1.8-.9 2.5-1.9 5-2.8 7.5H25zm5.8-66.1c-1.8 6.6-3.8 13.2-6 19.8h15c1.9-6.6 3.7-13.2 5.2-19.8H30.8zm63.9 66.1c.7-2.5 1.4-5 2-7.5 1.3-.4 2.6-.7 3.9-1.1-.3-3.5-.6-7.1-.9-10.6H79.6c-2.1 3.4-4.3 6.8-6.6 10.2 1.7.5 3.4 1 5.1 1.6-.7 2.5-1.5 5-2.3 7.5H49.2c1-2.5 1.9-5 2.8-7.5 3-.8 6-1.6 9-2.5C77.2 45.3 89.5 22.5 97.9 0h4c6.1 22.7 11.1 45.7 15 68.5 1.9.6 3.8 1.3 5.8 1.9l-1.5 7.5c-8.8-.1-17.7-.1-26.5-.1zm3-42.1c.6-4 1.2-8 1.6-12H98c-3.7 8.3-7.8 16.5-12.5 24.8h13.4c-.3-4.3-.7-8.5-1.2-12.8zm27.2 42.1l1.5-7.5c2-.5 4-1 5.9-1.6 3.2-19.2 4.5-38.5 4.1-57.7-1.6-.5-3.3-1-4.9-1.5 0-2.5-.1-5-.2-7.5h22.5c.2 2.5.5 5 .7 7.5L150 11c1.1 19.2.4 38.5-2 57.7 1.7.5 3.4 1 5.1 1.6-.3 2.5-.6 5-1 7.5h-27.2zm83.7-9.6c-4 3.5-8.1 7-12.4 10.5h-14.1c-7.1-2-14.1-4.1-21.1-6.1.6-5.4 1-10.8 1.3-16.2h9.3c1.1 3.3 2.3 6.6 3.3 10h17.8c.1-7.3-.1-14.6-.5-21.9-6.9-2.1-13.8-4.1-20.5-6.2-3.4-3.1-6.7-6.1-10-9.2 2.2-7.7 4-15.5 5.3-23.2 4.3-1.5 8.5-3.1 12.7-4.6H191c3.2 2.7 6.4 5.4 9.6 8 .8 4 1.6 8.1 2.2 12.1H194c-1.3-2.8-2.7-5.7-4-8.5h-14.1c.7 6 1.3 12 1.7 18H194c4.3 3.7 8.6 7.5 13 11.2.9 8.8 1.5 17.5 1.6 26.1zm37.8-50.5c-1.2-2-2.4-4-3.7-5.9H230c1.8 6.6 3.4 13.3 4.8 19.9h8.9l.6-5.7h7.9c1.9 6.7 3.5 13.4 4.9 20.1h-8.3c-.9-1.7-1.9-3.4-2.8-5.2h-9.3c1.5 8.5 2.7 17 3.6 25.4h13c.8-3.3 1.5-6.6 2.2-9.9h9.5c1 5.1 1.8 10.2 2.6 15.2-6.9 2-13.9 4.1-21.1 6.1h-26.8c0-2.5-.1-5-.2-7.5 1.8-.5 3.5-1 5.2-1.6-1-19.2-3.9-38.5-8.4-57.7-1.6-.5-3.3-1-4.9-1.5-.6-2.5-1.2-5.1-1.9-7.6h32.6c3.4 2.6 6.8 5.1 10.2 7.7.9 2.6 1.8 5.3 2.6 7.9-2.8.3-5.7.3-8.5.3zm81.5 54.1c-6.4 2-12.9 4-19.6 6h-32.1c-.4-2.5-.7-5-1.2-7.5 1.7-.5 3.4-1 5-1.6-3.6-19.2-8.9-38.5-16-57.7l-5.1-1.5c-.9-2.5-1.9-5.1-2.8-7.6h40.3c5.1 3.5 10.3 7 15.5 10.5 6.3 12.7 11.8 25.5 16.5 38.2.3 7.2.1 14.2-.5 21.2zM298 11.7h-20c7.4 18.2 13.1 36.4 17.3 54.6h23A382 382 0 0 0 298 11.7z" fill="#277A9C"/></svg>