<svg xmlns="http://www.w3.org/2000/svg" width="386" height="94.5" viewBox="0 0 386 94.5"><g fill="#277A9C"><path d="M35.2 96.4C43.5 85.1 49.3 73.9 52 62.9c2.2-4.2 3.9-8.4 5.1-12.5-3 0-6 0-9-.1-3.4 11.2-10.8 22.3-22.2 33.5 1.4.8 2.8 1.5 4.3 2.3-3.2 3.1-6.6 6.3-10.4 9.4-10.6-.6-21.1-1.4-31.7-2.1 4.5-3 8.6-6 12.3-9 2.8-.5 5.5-1 8.1-1.5C35.4 59.6 42.2 36.3 28.9 13l-6.3-1.5c-1.9-3-4.3-6.1-6.9-9.1 14.5-1 29-1.9 43.5-2.7 6.3 3.9 11.9 7.8 17 11.8 3.2 8.5 4.6 17.1 4.4 25.6-3.5 4-7.4 7.9-11.7 11.8.8 11.9-1.9 24-7 36.2 1.7.9 3.4 1.7 5.2 2.6-2.5 3.3-5.1 6.5-8 9.8-8-.2-16-.6-23.9-1.1zm9.6-83.3c4 8.2 5.8 16.4 5.5 24.6 5.2-.1 10.3-.1 15.5-.2.3-8.4-1.4-16.8-4.9-25.1-5.4.2-10.8.4-16.1.7zm71.3 86.7c1.7-3.4 3.2-6.8 4.6-10.2 1.6-.5 3.1-1 4.6-1.4.6-4.9 1-9.7 1.3-14.6-7-.1-14.1-.2-21.1-.4-3.1 4.5-6.5 9-10.4 13.6 1.6.8 3.3 1.5 5 2.3-1.8 3.4-3.8 6.7-5.9 10.1-10.3-.4-20.5-.8-30.8-1.2 2.8-3.3 5.4-6.6 7.8-9.9 3.8-1 7.6-1.9 11.2-2.9 28.1-29.8 34.6-60 32.6-90.5 1.7-.1 3.3-.1 5-.2 19.2 30.3 22.8 61.3 23.6 92.9 2 .9 4 1.8 6.1 2.7-.8 3.5-1.8 6.9-2.8 10.4-10.3-.2-20.5-.4-30.8-.7zm9.8-57.3c.3-5.4.3-10.8-.1-16.1h-1.4c-2 11.1-5.4 22.2-11 33.3 4.6 0 9.2.1 13.7.1 0-5.8-.4-11.5-1.2-17.3zm25.3 58c.9-3.5 1.7-6.9 2.5-10.4 2.3-.7 4.5-1.4 6.7-2.1 4.7-26.6 5.9-53 3.6-79.3-1.9-.6-3.8-1.3-5.8-1.9-.4-3.4-.9-6.8-1.4-10.2 9.1-.1 18.3-.2 27.4-.2.1 3.4.2 6.8.3 10.3-1.7.7-3.4 1.3-5.1 2 1.1 26.3.5 52.9-1.7 79.5 1.9.7 3.8 1.5 5.7 2.2-.2 3.5-.4 7-.6 10.4-10.5 0-21.1-.1-31.6-.3zm93-13.5c-3.1 4.9-6.3 9.8-9.9 14.7-5.5.1-11 .1-16.4.2-8.9-2.8-17.4-5.6-25.4-8.5 0-7.5 0-15 .1-22.5h9.8c1.5 4.6 3.1 9.2 4.8 13.8 6.5 0 12.9-.1 19.4-.1-1.8-10.1-3-20.1-3.7-30.1-7.1-2.8-14.1-5.6-21-8.5-3.4-4.2-6.7-8.4-10-12.7 2.5-10.6 5-21.2 8-31.8 5.3-2.1 10.8-4.1 16.4-6.2 4.6 0 9.2.1 13.8.2 2.6 3.7 5.1 7.4 7.7 11.1-.8 5.5-1.4 11-1.7 16.5-3.1 0-6.3-.1-9.4-.1-.8-3.9-1.5-7.8-2.2-11.7-5.3-.1-10.5-.1-15.8-.1-.4 8.2-.5 16.5-.5 24.8h16.9c4.1 5.1 8.3 10.2 12.8 15.3.8 11.9 3 23.8 6.3 35.7zm40-68.3c-.2-2.6-.3-5.3-.2-7.9-4.8-.1-9.6-.3-14.3-.4-2.1 8.9-3 17.8-2.9 26.7 3.1 0 6.1 0 9.2.1.6-2.5 1.4-5.1 2.2-7.6 2.8 0 5.5.1 8.3.1-.6 8.8.2 17.6 2.5 26.5-2.8 0-5.7.1-8.5.1-1.2-2.3-2.2-4.6-3.2-6.9h-9.5c1.5 11.4 4.9 22.8 10.1 34.2 4.7-.1 9.5-.2 14.2-.4-1-4.4-1.8-8.8-2.3-13.2 3.3-.1 6.6-.1 9.9-.2 3 6.7 6.9 13.4 11.7 20.1-6.1 3-12.5 6.1-19.2 9.1-10.4.4-20.7.7-31.1.9-1.5-3.4-2.8-6.9-4.1-10.3 1.7-.8 3.4-1.5 5.1-2.3C252 61.1 249.5 35 254.5 9.1L249.7 7c.6-3.4 1.4-6.9 2.3-10.3 13.3.3 26.5.7 39.8 1.2 1.5 3.5 3.1 7 4.9 10.5-1.2 3.5-2.2 6.9-3 10.4-3.3.1-6.4 0-9.5-.1z"/><path d="M379.1 86.7c-4.8 2.9-9.8 5.9-15 9-12.4.7-24.8 1.4-37.2 2-2.9-3.3-5.6-6.6-8-9.8 1.5-.8 2.9-1.5 4.3-2.3-19-25-23.7-49.9-14.4-74.7l-4.5-2.1c1.3-3.3 2.8-6.6 4.5-9.9 16.4.8 32.8 1.7 49.1 2.7.7 4.6 1.7 9.1 3.3 13.5-8.4 15.3-7.7 30.6 2.1 45.8 2.9 8.5 8.3 17.1 15.8 25.8zm-32.7-73.4c-7.5-.4-15-.7-22.6-1-9.7 23.1-5 46.2 14 69.4 8.3-.4 16.7-.8 25-1.2-22.3-22.4-27.8-44.8-16.4-67.2z"/></g></svg>