<svg xmlns="http://www.w3.org/2000/svg" width="519.5" height="94.5" viewBox="0 0 519.5 94.5"><path d="M31 95.6c12.7-11.1 21.7-22 26.5-32.9 3-4.1 5.3-8.3 7-12.4h-9.1c-4.7 11.1-14.6 22.1-29.7 33.2 1.2.7 2.4 1.4 3.6 2.2-4.2 3.1-8.9 6.2-13.9 9.3-10.6-.5-21.1-1-31.7-1.5 5.7-3 10.9-6 15.7-9 3-.5 5.9-1.1 8.8-1.6C43 59.5 52.1 36.3 35.9 13.1c-2.1-.5-4.3-1-6.5-1.5-2.4-3-5.2-6.1-8.5-9.1 14.5-.7 29-1.4 43.5-1.9 7.1 3.9 13.5 7.8 19.2 11.7 4.3 8.4 6.2 16.7 5.7 25.1-3.6 3.9-7.8 7.8-12.6 11.6-.4 11.7-5.6 23.5-14.6 35.5 1.5.8 2.9 1.7 4.4 2.5-3.6 3.2-7.4 6.4-11.7 9.6-7.9-.4-15.9-.7-23.8-1zm20.9-82.2c5 8.1 7.2 16.2 6.6 24.3 5.2 0 10.5-.1 15.7-.1.5-8.3-1.5-16.5-6.1-24.7-5.4.1-10.8.3-16.2.5z"/><path d="M133.7 18.9c-1.3-2.6-2.8-5.2-4.4-7.7l-14.4.3c3.5 8.6 5.1 17.2 4.6 25.9 3.1 0 6.2 0 9.3-.1.8-2.5 1.5-5 2-7.5 2.8 0 5.6-.1 8.4-.1.6 8.8-.5 17.6-3.3 26.4-2.9 0-5.7 0-8.6-.1.1-2.3.2-4.5.1-6.8h-9.6c-2.9 11-8.9 22.1-18.2 33.1l14.3.3c4.6-4.3 8.7-8.6 12.3-12.9 3.3 0 6.7.1 10 .1-3.3 6.7-7.6 13.5-12.8 20.2-10.2 2.5-20.9 5-32.2 7.5-10.4-.3-20.7-.7-31.1-1 4.1-3.2 7.9-6.4 11.4-9.6 2.7-.6 5.4-1.2 8-1.8 24.9-24.8 31.4-49.5 19.8-74.1-2-.6-4.1-1.1-6.2-1.7-1.7-3.2-3.8-6.5-6.1-9.7 13.3-.5 26.5-.9 39.8-1.2 4.9 3.3 9.4 6.6 13.6 9.9 1.3 3.5 2.3 7 3.1 10.5-3.5 0-6.7.1-9.8.1z"/><path d="M172.7 99.6c2.6-11.9 4.2-23.7 4.3-35.5 1.2-4.5 2.2-9 2.9-13.4h-9.1c-2 12.1-6.3 24.2-12.9 36.3 1.7.7 3.4 1.5 5.2 2.2-1.8 3.4-3.7 6.8-5.8 10.2-10.6-.2-21.1-.4-31.7-.7 2.8-3.3 5.3-6.7 7.6-10 2.5-.7 4.9-1.3 7.3-2 16.4-25.7 20.8-51.4 13-76.8-1.9-.6-3.9-1.2-5.9-1.8-1.2-3.4-2.5-6.7-4.1-10.1 14.5-.3 29-.6 43.5-.8 5 4.3 9.6 8.5 13.9 12.8 1.4 8.9 2.1 17.8 1.9 26.8-3.5 4.2-7.2 8.3-11.2 12.4 2.1 12.6 2.5 25.2 2.3 38 2 .8 4.1 1.7 6.1 2.5-1.1 3.4-2.3 6.8-3.6 10.3-7.8-.1-15.7-.2-23.7-.4zm-3.4-89.1c2.2 8.8 3.1 17.7 2.9 26.5 5.2 0 10.5 0 15.7-.1.2-8.9-.6-17.8-2.4-26.7l-16.2.3zm84.4 89.8c.1-3.5.2-6.9.3-10.3 1.4-.5 2.7-1 4.1-1.5-1.2-4.9-2.3-9.8-3.4-14.6h-21.3c-1.8 4.7-3.8 9.3-5.9 14 1.9.7 3.9 1.5 5.8 2.2-.5 3.4-1 6.9-1.6 10.3-10.3-.1-20.6-.1-30.8-.2 1.2-3.4 2.3-6.9 3.3-10.3 3.4-1.1 6.7-2.2 10-3.3 16.8-30.9 22.7-61.9 29.6-92.5h5C259 24.8 264.1 56 276 87.3c2.3.9 4.7 1.7 7.1 2.6.4 3.4.9 6.9 1.4 10.3-10.3.1-20.6.1-30.8.1zm-4.8-57.8c.1-5.5.1-10.9 0-16.4h-1.4c-2.7 11.2-5.6 22.5-9.2 33.8h13.9l-3.3-17.4zm39.9 57.7c-.6-3.4-1.1-6.9-1.7-10.3 2-.7 4-1.5 5.9-2.2-4.6-26.4-5.8-52.7-3.6-78.8-1.8-.7-3.6-1.3-5.4-2 .2-3.4.5-6.8.9-10.2 9.1 0 18.3.1 27.4.2-.7 3.4-1.3 6.8-1.8 10.1-1.8.6-3.7 1.3-5.5 1.9-3.3 26-1.4 52.2 5.6 78.5 2.1.7 4.3 1.4 6.5 2.1 1.1 3.4 2.2 6.8 3.5 10.3-10.7.3-21.3.4-31.8.4zM377 86c-1.5 4.8-3 9.6-4.6 14.4-5.5.1-11 .2-16.4.3-10.1-2.6-19.7-5.3-28.9-8-2.8-7.4-5-14.8-6.8-22.2 3.3 0 6.6 0 9.9-.1 2.6 4.5 5.4 9 8.6 13.5l19.5-.3C353.4 73.8 350 64 348 54.2c-7.6-2.7-14.9-5.5-22.1-8.3-3.8-4.1-7.3-8.3-10.6-12.5 2.6-10.5 6.2-20.9 11.4-31.2 5.8-2 11.7-4 17.8-5.9l13.8.3c1.7 3.6 3.6 7.3 5.5 10.9-1.7 5.3-2.9 10.7-3.6 16.1-3.2 0-6.3-.1-9.5-.1-.6-3.8-.9-7.6-1.1-11.4-5.3-.1-10.6-.1-15.9-.2-1.5 8.1-2.2 16.2-2.1 24.3 5.7 0 11.4 0 17.1.1 4.2 5 8.8 10 13.9 15C365 62.8 369.8 74.4 377 86zm32.3-66.6c0-2.6.2-5.1.6-7.7l-14.4-.3c-3.3 8.7-4.7 17.3-4.3 26 3.1 0 6.2 0 9.3.1.6-2.5 1.3-4.9 2.2-7.4 2.8 0 5.6.1 8.4.1-.8 8.6.6 17.2 4.2 25.8-2.9 0-5.7 0-8.6.1-1.5-2.2-2.8-4.5-4-6.7h-9.6c2.7 11.1 8.4 22.2 17.1 33.3l14.3-.3c-2.3-4.3-4.3-8.6-5.8-12.9 3.3-.1 6.7-.1 10-.2 4.5 6.5 10.4 13.1 17.5 19.6-5.2 2.9-10.5 5.8-16.1 8.8l-31.1.9c-2.9-3.3-5.5-6.7-7.9-10 1.5-.7 2.9-1.5 4.4-2.2-18.6-25.5-23.6-50.9-14.8-76.2-1.5-.7-3-1.3-4.6-2 1.2-3.3 2.6-6.7 4.3-10 13.3.3 26.5.7 39.8 1.1.8 3.4 1.8 6.8 3.1 10.2-1.7 3.4-3.1 6.8-4.2 10.2-3.5-.2-6.6-.3-9.8-.3z"/><path d="M514 86.5c-4 2.8-8 5.6-12.3 8.5-12.4.5-24.8 1.1-37.3 1.5-4.2-3.2-8.1-6.4-11.6-9.6 1.2-.7 2.5-1.5 3.7-2.2-27.1-24.5-34.3-48.9-21.5-73.2-1.4-.7-2.8-1.3-4.2-2 1.8-3.2 3.9-6.5 6.3-9.7 16.4.6 32.8 1.3 49.2 2-.2 4.5.2 8.9 1.4 13.2-10.1 15.3-8.9 30.6 3.8 45.8 4.3 8.6 12 17.1 22.5 25.7zm-41.3-72.9c-7.6-.3-15.1-.5-22.7-.8-12.6 22.7-5.9 45.5 20.3 68.3 8.4-.3 16.7-.6 25.1-.9-29.2-22.2-36.8-44.5-22.7-66.6z"/></svg>