<svg xmlns="http://www.w3.org/2000/svg" width="519.5" height="94.5" viewBox="0 0 519.5 94.5"><path d="M44.4 93.4L34 62.1v-12H23.5v32.4l6.3 1.9v9H0v-9l5.9-1.9V13.3L0 11.6V2.4h47.3L59.5 14v23.8l-12.1 11 12.4 33.5 7 2.2v9H44.4zM23.5 14.1v23.8h18.4V14.1H23.5zm90.3 7.1l-2.4-7.1H95V38h10.9l2.4-6.9h9.8v24.1h-9.8l-2.2-6.2H95v30.5h14.6l4.2-11.8h10.9V86l-23.9 7.4H71.5v-9l5.9-1.9V13.3l-5.9-1.7V2.4h43.3l9.9 9.3v9.5h-10.9zm64 72.2l-10.3-31.3v-12H157v32.4l6.3 1.9v9h-29.8v-9l5.9-1.9V13.3l-5.9-1.7V2.4h47.3L193 14v23.8l-12.1 11 12.4 33.5 7 2.2v9h-22.5zM157 14.1v23.8h18.4V14.1H157zm97 79.3v-9l4-1.3-3.8-12.8h-23L227 82.5l6.2 1.9v9h-29v-9l9.1-3L242.6 0h5.4l28.2 82.1 6.9 2.3v9H254zm-7-50.5V28.5h-1.6l-9.9 29.7h15.7L247 42.9zm40.1 50.5v-9l6.3-1.9V13.3l-6.3-1.7v-9h29.8v9l-5.9 1.7v69.2l5.9 1.9v9h-29.8zm91.5-11.6l-13.5 12.6h-15.4L325.9 87V67.6h10.8l4.3 12h20V53.4L336.8 46 325 35l9-27.8 17.6-5.5h15l10.4 9.7v14.5h-11.1l-3.5-10.2h-18.2v21.6h20.1l14.4 13.4v31.1zm54.3-60.6l-2.4-7.1h-16.4V38H425l2.4-6.9h9.8v24.1h-9.8l-2.2-6.2H414v30.5h14.6l4.2-11.8h10.9V86l-23.9 7.4h-29.3v-9l5.9-1.9V13.3l-5.9-1.7V2.4h43.3l9.9 9.3v9.5h-10.8zm78 65l-23.3 7.3h-35.1v-9l5.9-1.9V13.3l-5.9-1.7V2.4H506L519.4 15v45.8l-8.5 25.4zm-9.1-72.1H476v65.5h25.8V14.1z"/></svg>