<svg xmlns="http://www.w3.org/2000/svg" width="155.5" height="91" viewBox="0 0 155.5 91"><path d="M54.3 28.7c-2-6.9-4.2-13.8-6.7-20.6-1.6.1-3.3.2-4.9.3 2.7 25 1.3 50.2-4.3 75.5 1.8.8 3.5 1.7 5.3 2.5-.7 3.4-1.4 6.7-2.2 10.1-10.5-.7-21.1-1.8-31.7-3.2 1.5-3.2 2.8-6.3 4.1-9.5 2.4-.4 4.7-.9 7-1.3C29 58.1 31.1 33.9 27.1 9.7c-1.9.2-3.9.4-5.8.6-.7 6.7-1.9 13.3-3.5 19.7l-6.3.3C11.1 20.2 9.1 10.1 5.4 0c11.4-1.9 22.8-3.3 34.2-4.3 6.9 1.8 13.5 3.9 19.9 6.1.6 8.9.9 17.8 1 26.8-2 .1-4.1.1-6.2.1zM63.4 97.6c.3-3.4.6-6.9.9-10.3 2.2-.7 4.3-1.3 6.4-2 1-26.4 1.3-52.7.8-78.8-1.9-.6-3.8-1.3-5.7-1.9-.1-3.4-.3-6.8-.5-10.2 9.2-.3 18.5-.2 27.7.1-.2 3.4-.4 6.8-.6 10.1-1.8.6-3.6 1.2-5.3 1.8-.8 26.1-.4 52.3 1.1 78.7 2 .7 4 1.4 6.1 2 .3 3.4.7 6.9 1.1 10.3-10.7.5-21.3.5-32 .2zM135.7 17.9c-.4-2.5-.7-5.1-.9-7.6-4.8-.5-9.7-1-14.5-1.3-1.2 8.6-1.7 17.3-1.6 25.9 3.1.1 6.2.1 9.3.2.7-2.4 1.4-4.8 2.2-7.2 2.8.1 5.6.3 8.4.4-.4 8.2.1 16.4 1.5 24.6-2.9.1-5.7.2-8.6.3-.9-2.2-1.8-4.3-2.7-6.5-3.2 0-6.4.1-9.6.1.8 11.1 2.7 22.1 5.5 33.2 4.8-.4 9.5-.8 14.3-1.3-.1-4.3-.1-8.5.1-12.7 3.3-.2 6.7-.5 10-.8 2 6.1 4.6 12.2 7.8 18.3-6.8 3.6-14 7.3-21.5 10.9-10.4 1.2-20.9 2-31.3 2.6-.6-3.4-1.1-6.8-1.6-10.2 1.9-.8 3.7-1.6 5.6-2.4-4.4-26-5.4-51.8-3.2-77.4-1.7-.7-3.4-1.5-5.1-2.2l.9-10.2c13.4.7 26.8 2 40.2 3.9 2.1 3.6 4.2 7.2 6.4 10.7-.8 3.2-1.5 6.4-2 9.5-3.3-.2-6.4-.5-9.6-.8z"/></svg>