<svg xmlns="http://www.w3.org/2000/svg" width="223.4" height="206.6" viewBox="0 0 223.4 206.6"><path d="M69 10.2L55 37.3v29.8l4.9 1.6v7.5H35.1v-7.5l5.3-1.6V40.4L25.8 10.1 19 8V.3h24.3v7.5l-2.1.7 5.3 12.2v8.1h1.3l9.3-20-2.9-.8V.3h22.1V8L69 10.2zm58.1 60.5l-19.4 6.2H90.8L79.6 66.3V24.8l7.2-20.2L101.4 0H123l11.3 10.5v39.1l-7.2 21.1zm-7.5-59.4H94.3v53.3h25.3V11.3zm80.2-1.9v40.2l-7.2 21.2-19.4 6h-12.8l-11.2-10.5V9.4L144.4 8V.3h24.9V8L164 9.4v55.2h21.2V9.4l-5-1.4V.3H205V8l-5.2 1.4zM89.2 138.6l-21.7 68h-4.9l-12.2-35.4v-7.6h-1.3l-14.8 43h-4.8L5.8 138.1 0 136.4v-7.6h24.3v7.5l-3.4 1.1 10.9 32.4v8.5h1.3l9.5-28.9-3.6-11.3-5.8-1.8v-7.6h24.1v7.5l-3 .8 10.2 31.2v10h1.4l11.6-40.9-3.2-1v-7.6h22.3v7.6l-7.4 2.3zm58.2 60.5l-19.4 6.2h-16.9l-11.2-10.5v-41.6l7.2-20.2 14.6-4.6h21.6l11.3 10.5V178l-7.2 21.1zm-7.5-59.4h-25.3V193h25.3v-53.3zm78.2-1.9v68.8H209L189.4 170l-6.8-25.5h-1.3v51l5 1.6v7.6h-21.1v-7.6l5.3-1.6v-57.6l-4.8-2.2v-6.8h20.7l11.1 21.2L206 180h1.3v-42.2l-4.9-1.5v-7.6h21.1v7.6l-5.4 1.5z"/></svg>