<svg xmlns="http://www.w3.org/2000/svg" width="223.4" height="216.9" viewBox="0 0 223.4 216.9"><path d="M66.5 13.6c-4.8 8.7-8.7 18.5-12.6 28.8.1 11.2.5 22.5 1 33.8 1.7.5 3.3.9 5 1.2.2 2.8.5 5.6.8 8.4-8.9 1.4-17.7 1.4-26.6-.1.3-2.8.6-5.6.8-8.4 1.8-.3 3.6-.7 5.4-1.2.5-10.1.8-20.2 1-30.2-4-11.5-7.9-22.6-13-32.3-2-.3-4.1-.5-6.2-.6-.3-2.5-.6-5.1-1-7.6C28.6 2.6 36.2 1 43.7.6c.1 2.8.1 5.6.2 8.5-.6.3-1.3.6-1.9.9 1.7 4.5 3.2 9 4.7 13.7v9.2h1.1c2.6-7.6 5.3-15.1 8.3-22.3-.9-.4-1.7-.7-2.6-1.1.1-2.9.1-5.7.2-8.6 6.8.6 13.7 2.1 20.5 4.7-.4 2.5-.8 5.1-1 7.6-2.2-.2-4.5 0-6.7.4zm61 64.3c-6.2 3.9-12.8 7.3-19.7 9.7-6 .1-12.1-.6-18.1-2C86.2 80.8 83 76 80 71.3c2.7-13.9 3.9-27.7 3.6-41.6 1.9-7 3.5-14.5 5-22.2 4.3-2.8 8.6-5.3 13.1-7.4 6.7-.5 13.4 0 20.1 1.5 3.2 4.6 6.2 9.3 9.2 13.8-1.2 13-1.2 26.1.3 39.1-1.3 7.4-2.5 15.3-3.8 23.4zm-9.4-64.3c-7.4-1-14.9-1-22.3 0 .7 19.6.4 39.4-1.2 59.2 8.2 1.1 16.4 1.1 24.6 0-1.5-19.9-1.8-39.6-1.1-59.2zm78.9-.4c-1.3 14-1.2 27.9.1 41.9-1.4 7.6-2.7 15.6-4.1 23.8-6.3 3.4-12.9 6.4-19.8 8.6-4.6-.1-9.1-.5-13.7-1.2-3.5-4.6-6.8-9.2-9.8-13.8 3.4-19.8 4.2-39.6 2.4-59.3-1.5-.2-3-.3-4.5-.3-.3-2.5-.7-5.1-1.1-7.6 7.7-2.7 15.4-4.3 23.1-4.8.1 2.9.1 5.7.2 8.6-1.6.6-3.1 1.3-4.6 2 .7 20.5.4 41.2-.9 62 6.9.6 13.7.7 20.6 0-1.3-20.8-1.6-41.4-.9-62-1.4-.7-2.9-1.3-4.3-2 .1-2.9.1-5.7.2-8.6 7.7.5 15.3 2.1 23 4.8-.4 2.5-.8 5.1-1.1 7.6-1.7.1-3.2.2-4.8.3zM84.5 142.5c-9.7 22.5-11.9 47.7-15.7 74-1.8.2-3.5.3-5.3.4-5.9-13.1-9.9-26.6-13.5-40v-8.7h-1.1c-4.2 16.3-8.6 32.8-15.7 48.7-1.7-.1-3.4-.2-5.2-.4-4.5-26.5-6.9-51.8-17.4-74.2-1.8-.3-3.6-.7-5.5-.9-.5-2.5-1.1-5.1-1.7-7.6 7.5-1.7 15.1-3 22.6-3.8.3 2.7.6 5.5.8 8.2-1 .5-1.9 1-2.9 1.5 4.3 11.4 7.4 23.3 10.1 35.5-.1 3.2-.2 6.4-.4 9.6h1.2c3.4-10.8 6-21.8 8.6-32.7-1.1-4.2-2.2-8.4-3.4-12.6-1.7-.6-3.5-1.2-5.3-1.8-.2-2.8-.3-5.7-.5-8.5 7.5-.5 15-.6 22.4-.3-.1 2.8-.2 5.6-.3 8.5-.9.3-1.8.5-2.7.8 2.8 11.8 5.4 23.7 8.6 35.4.1 3.7.3 7.5.5 11.2h1.2c2.5-15.4 5.4-30.4 10.4-44.8-.9-.5-1.9-.9-2.8-1.4.3-2.8.6-5.6.9-8.3 6.9.8 13.8 2 20.7 3.6-.7 2.5-1.2 5.1-1.7 7.6-2.3.2-4.6.6-6.9 1zm63.2 63.8c-6.2 3.9-12.8 7.3-19.7 9.7-6 .1-12.1-.6-18.1-2-3.5-4.8-6.7-9.6-9.7-14.3 2.7-13.9 3.9-27.7 3.6-41.6 1.9-7 3.5-14.5 5-22.2 4.3-2.8 8.6-5.3 13.1-7.4 6.7-.5 13.4 0 20.1 1.5 3.2 4.6 6.2 9.3 9.2 13.8-1.2 13-1.2 26.1.3 39.1-1.3 7.4-2.4 15.3-3.8 23.4zm-9.3-64.3c-7.4-1-14.9-1-22.3 0 .7 19.6.4 39.4-1.2 59.2 8.2 1.1 16.4 1.1 24.6 0-1.5-19.9-1.9-39.6-1.1-59.2zm77-.5c-2 23.9-.6 47.9 4.3 72-3.2 1-6.5 1.8-9.7 2.4-8.6-12.3-14.4-26.6-20-40.5-1.9-9.7-3.7-19.3-5.9-28.5-.4 0-.8.1-1.2.1.6 18.8.1 37.7-1.5 56.7 1.6.8 3.2 1.6 4.9 2.3-.1 2.9-.3 5.8-.5 8.7-7.4-.7-14.8-2.4-22.2-5.1.6-2.5 1.2-5.1 1.8-7.6 1.9 0 3.7-.1 5.5-.2 3.2-20.1 3.9-40.2 2.2-60.2-1.5-.4-3-.8-4.5-1.1l-.9-6.9c6.4-2.4 12.8-3.9 19.3-4.5 3.7 7.6 6.9 15.6 10.1 23.6 2.4 11.4 4.7 22.9 7.8 34 .4 0 .8 0 1.2-.1-.7-15.7-.8-31.3-.1-46.9-1.4-.7-2.9-1.4-4.3-2.1.1-2.8.2-5.7.3-8.5 6.5.7 13.1 2.2 19.6 4.7-.4 2.5-.7 5.1-1 7.6-1.9-.1-3.5 0-5.2.1z"/></svg>